HIERARCHY
ROOT ui
{
	 OFFSET 0 0 0
	 CHANNELS 3 XPosition YPosition Z Position
	 EndSite
	 {
	 OFFSET 0 -1 0
	 }
}
ROOT li
{
	 OFFSET 0 0 0
	 CHANNELS 3 XPosition YPosition Z Position
	 EndSite
	 {
	 OFFSET 0 -1 0
	 }
}
ROOT ul
{
	 OFFSET 0 0 0
	 CHANNELS 3 XPosition YPosition Z Position
	 EndSite
	 {
	 OFFSET 0 -1 0
	 }
}
ROOT ll
{
	 OFFSET 0 0 0
	 CHANNELS 3 XPosition YPosition Z Position
	 EndSite
	 {
	 OFFSET 0 -1 0
	 }
}
ROOT tt
{
	 OFFSET 0 0 0
	 CHANNELS 3 XPosition YPosition Z Position
	 EndSite
	 {
	 OFFSET 0 -1 0
	 }
}
ROOT tb
{
	 OFFSET 0 0 0
	 CHANNELS 3 XPosition YPosition Z Position
	 EndSite
	 {
	 OFFSET 0 -1 0
	 }
}
ROOT td
{
	 OFFSET 0 0 0
	 CHANNELS 3 XPosition YPosition Z Position
	 EndSite
	 {
	 OFFSET 0 -1 0
	 }
}
ROOT v
{
	 OFFSET 0 0 0
	 CHANNELS 3 XPosition YPosition Z Position
	 EndSite
	 {
	 OFFSET 0 -1 0
	 }
}
ROOT bn
{
	 OFFSET 0 0 0
	 CHANNELS 3 XPosition YPosition Z Position
	 EndSite
	 {
	 OFFSET 0 -1 0
	 }
}
MOTION
Frames: 29
Frame Time: 0.002
-0.03239247131347656	-0.0020301029682159425	0		0.5160597534179687	-2.5008037109375	0		-0.9192528686523438	0.2727072448730469	0		-0.5631432495117188	-2.829166015625	0		1.6354091796875	-0.6748827514648438	0		3.1758271484375	-0.012607598304748535	0		4.46068896484375	-0.03146466827392578	0		5.9622724609375	0.512396484375	0		-0.23103132629394532	5.91174560546875	0		
-0.03245979690551758	-0.0017348049879074097	0		0.4987715454101562	-2.5062724609375	0		-0.9133841552734375	0.26795623779296873	0		-0.5589393920898438	-2.801908447265625	0		1.6400115966796875	-0.6937494506835937	0		3.190757568359375	-0.012711680412292481	0		4.4606201171875	-0.03140298271179199	0		5.9751064453125	0.5041795043945313	0		-0.263895751953125	5.9055634765625	0		
-0.027630687713623047	-0.005542033195495606	0		0.5265366821289063	-2.506464111328125	0		-0.9134789428710938	0.2682696838378906	0		-0.5388612670898437	-2.780926025390625	0		1.6337457275390626	-0.701467529296875	0		3.202709716796875	-0.008787590026855469	0		4.45671337890625	-0.018293691635131837	0		5.98427099609375	0.5200115966796875	0		-0.22765484619140625	5.90928466796875	0		
-0.01762511444091797	0.004540447235107422	0		0.5013556213378906	-2.500860107421875	0		-0.9136157836914063	0.2685493774414062	0		-0.5394959716796875	-2.739652587890625	0		1.638502197265625	-0.7053803100585937	0		3.190499267578125	-0.012506001472473145	0		4.46445361328125	-0.025380311965942384	0		5.979021484375	0.5120589599609375	0		-0.09717855834960938	5.93150244140625	0		
0.044073436737060545	-0.00322360897064209	0		0.5219136352539062	-2.511003173828125	0		-0.8909802856445312	0.2564311218261719	0		-0.5384288940429688	-2.71644580078125	0		1.6181202392578125	-0.7159266967773438	0		3.16816064453125	-0.02208238410949707	0		4.468376953125	-0.018415550231933593	0		5.974732421875	0.5040910034179688	0		-0.09712953948974609	5.93171044921875	0		
-0.0021973791122436525	-0.006338334083557129	0		0.49363748168945315	-2.509416015625	0		-0.9281810913085937	0.25720523071289064	0		-0.5431817016601562	-2.68118896484375	0		1.670516357421875	-0.7396416625976563	0		3.187833984375	-0.029332508087158204	0		4.4550859375	-0.023191003799438475	0		5.97866015625	0.5119985961914062	0		-0.09715055084228516	5.93187890625	0		
0.04362016677856445	-0.002937740087509155	0		0.5202846069335938	-2.512728759765625	0		-0.8805612182617187	0.24759928894042968	0		-0.5489226684570313	-2.644962646484375	0		1.6559775390625	-0.757338623046875	0		3.18759375	-0.029289546966552733	0		4.4638134765625	-0.02532090377807617	0		5.97843359375	0.511971435546875	0		-0.26267578125	5.90559765625	0		
-0.02868448257446289	-0.004728624820709229	0		0.4970867614746094	-2.50529931640625	0		-0.9168187255859375	0.24825865173339845	0		-0.527892578125	-2.62320751953125	0		1.6357474365234375	-0.753975830078125	0		3.202309326171875	-0.030503284454345702	0		4.47378125	-0.010480573654174805	0		5.97817626953125	0.5119440307617188	0		-0.24866676330566406	5.91645947265625	0		
-0.021872314453125	0.0021922221183776854	0		0.5247616577148437	-2.505712890625	0		-0.8811177368164063	0.24773312377929688	0		-0.5435216064453126	-2.578924560546875	0		1.620161865234375	-0.7717223510742187	0		3.1878251953125	-0.04228170776367188	0		4.46939013671875	-0.016429500579833986	0		5.97788427734375	0.5119166564941406	0		-0.09665696716308594	5.93110107421875	0		
-0.034247432708740234	-6.348659992218017E-4	0		0.48454339599609375	-2.498101806640625	0		-0.854575927734375	0.239294677734375	0		-0.5164022827148438	-2.5503681640625	0		1.6396243896484375	-0.7850538940429688	0		3.207383056640625	-0.04961639404296875	0		4.464951171875	-0.023388731002807618	0		5.97269775390625	0.5209688720703125	0		-0.09697737121582031	5.9310849609375	0		
-0.029668813705444337	-0.0047779111862182614	0		0.518978515625	-2.51271142578125	0		-0.894993408203125	0.23585324096679688	0		-0.5551402587890625	-2.511828125	0		1.62805322265625	-0.7989325561523437	0		3.19202734375	-0.049422977447509765	0		4.48246533203125	-0.03170426368713379	0		5.98106787109375	0.5038064270019531	0		-0.09737660217285156	5.93101953125	0		
-0.03004374885559082	-0.0048920269012451174	0		0.49169149780273436	-2.509393798828125	0		-0.8593763427734376	0.235160888671875	0		-0.5130903930664062	-2.48761279296875	0		1.6633873291015624	-0.8185848999023437	0		3.174388427734375	-0.06621994781494141	0		4.47009228515625	-0.03156258392333984	0		5.9688125	0.511969482421875	0		-0.22918516540527345	5.90996435546875	0		
0.04568246078491211	7.523249983787537E-4	0		0.4954344177246094	-2.505608642578125	0		-0.8757852172851562	0.23323085021972656	0		-0.5379052734375	-2.455398193359375	0		1.6548751220703124	-0.8285841064453126	0		3.22013525390625	-0.05903499984741211	0		4.4738125	-0.025690353393554688	0		5.9895498046875	0.5196077880859375	0		-0.2627947998046875	5.9033154296875	0		
-0.02366221618652344	0.0016236809492111207	0		0.5231484375	-2.506242919921875	0		-0.7800158081054688	0.24049235534667968	0		-0.47985195922851565	-2.434533935546875	0		1.6812916259765625	-0.845168212890625	0		3.1826474609375	-0.06757405853271484	0		4.47549072265625	-0.023805932998657228	0		5.98918212890625	0.51956640625	0		-0.23119285583496094	5.91059619140625	0		
0.04589167785644531	-0.007725838184356689	0		0.49086279296875	-2.509981201171875	0		-0.8604361572265625	0.23445979309082032	0		-0.5595718994140625	-2.40156103515625	0		1.6708060302734375	-0.8582094116210938	0		3.199944580078125	-0.09299995422363282	0		4.49097412109375	-0.03715796279907226	0		5.9837275390625	0.5115934143066406	0		-0.09937947082519531	5.930267578125	0		
0.040698570251464845	-0.003947521924972534	0		0.51765673828125	-2.513682861328125	0		-0.7878508911132812	0.22398831176757814	0		-0.5581248168945312	-2.362904541015625	0		1.6593671875	-0.8722705078125	0		3.190583984375	-0.10003197479248047	0		4.484580078125	-0.04618490219116211	0		5.97471630859375	0.528669677734375	0		-0.11501112365722656	5.921197265625	0		
-0.03152922630310059	-0.0061696720123291015	0		0.498458740234375	-2.5217060546875	0		-0.86004248046875	0.2247281951904297	0		-0.5534102172851563	-2.376348876953125	0		1.6480006103515625	-0.8863654174804687	0		3.210287353515625	-0.10753981018066407	0		4.48439208984375	-0.04632418060302734	0		5.9842373046875	0.5114447326660156	0		-0.23265771484375	5.90966845703125	0		
0.04445158004760742	-7.295780181884766E-4	0		0.4906375122070312	-2.510939208984375	0		-0.8451278076171875	0.22707179260253907	0		-0.5758963012695313	-2.343405029296875	0		1.659522216796875	-0.9128463134765625	0		3.1910986328125	-0.11246500396728516	0		4.48838330078125	-0.03954315185546875	0		5.97535693359375	0.5285009765625	0		-0.23405677795410157	5.91029150390625	0		
-0.029522966384887696	0.0040003819465637205	0		0.490728271484375	-2.511326416015625	0		-0.8451852416992187	0.22661228942871095	0		-0.5676766967773438	-2.334974609375	0		1.6923836669921875	-0.9226784057617188	0		3.217639892578125	-0.14011949157714843	0		4.497	-0.06185029220581055	0		5.9874208984375	0.5372243041992187	0		-0.2344217071533203	5.90986474609375	0		
0.04935828399658203	-0.006656202793121338	0		0.5137923583984375	-2.51909228515625	0		-0.7841610107421875	0.22618403625488281	0		-0.5305321655273437	-2.337017578125	0		1.688174560546875	-0.9419583740234375	0		3.208570556640625	-0.14723574829101563	0		4.49703271484375	-0.06203171920776367	0		5.9912802734375	0.5280686645507813	0		-0.1023810806274414	5.9313779296875	0		
-0.03649858856201172	-0.0038005731105804443	0		0.48505224609375	-2.51908056640625	0		-0.794056396484375	0.2268250732421875	0		-0.5282411499023437	-2.334544921875	0		1.677121337890625	-0.9561486206054688	0		3.212436279296875	-0.16356224060058594	0		4.50093896484375	-0.07527955627441406	0		5.9823505859375	0.5281099243164062	0		-0.10264276123046875	5.93090771484375	0		
0.04064906692504883	-0.006456727027893066	0		0.5103062133789062	-2.52491015625	0		-0.7879762573242187	0.22120332336425783	0		-0.5608551025390625	-2.33055615234375	0		1.6920018310546876	-0.9797471313476562	0		3.20432958984375	-0.18271208190917967	0		4.494994140625	-0.08337857055664062	0		5.97961083984375	0.5360582885742188	0		-0.2361865692138672	5.90945166015625	0		
-0.024045724868774414	-0.001956444978713989	0		0.507557373046875	-2.535318359375	0		-0.8447020874023438	0.22452777099609375	0		-0.5513296508789063	-2.32221923828125	0		1.69106005859375	-0.9961074829101563	0		3.237498291015625	-0.18849040222167968	0		4.5001142578125	-0.09164661407470703	0		5.99293212890625	0.5437645874023438	0		-0.22020384216308594	5.91770361328125	0		
0.052346794128417966	0.0034034531116485596	0		0.5172765502929687	-2.518911865234375	0		-0.7802325439453125	0.23601397705078125	0		-0.544775390625	-2.31583642578125	0		1.706056884765625	-1.0207084350585938	0		3.21158251953125	-0.2033701934814453	0		4.50343017578125	-0.09088288116455077	0		5.9880859375	0.5367490844726562	0		-0.23643492126464843	5.90844287109375	0		
-0.038192462921142575	0.011294815063476562	0		0.4945948486328125	-2.5320107421875	0		-0.7890221557617187	0.22761819458007812	0		-0.5164160766601562	-2.325773193359375	0		1.71810693359375	-1.0452545166015625	0		3.212504638671875	-0.23265101623535156	0		4.51246435546875	-0.1121998519897461	0		5.98839599609375	0.5366630249023437	0		-0.23647900390625	5.9079462890625	0		
0.041912513732910155	-0.008368775367736817	0		0.5180363159179687	-2.539786865234375	0		-0.792697021484375	0.22416275024414062	0		-0.55187646484375	-2.32573193359375	0		1.6924422607421874	-1.0532169189453124	0		3.22267822265625	-0.24805485534667968	0		4.51463134765625	-0.12739934539794923	0		5.983611328125	0.5276636352539062	0		-0.1031488265991211	5.92847119140625	0		
-0.04450189590454102	0.003489711046218872	0		0.4926566162109375	-2.536807373046875	0		-0.792300048828125	0.22367138671875	0		-0.51735107421875	-2.328715087890625	0		1.7283494873046874	-1.092083251953125	0		3.236835205078125	-0.2664979553222656	0		4.51505029296875	-0.12755348205566405	0		5.98524267578125	0.5445860595703125	0		-0.23644261169433595	5.9070107421875	0		
0.03390021133422851	9.175500273704529E-4	0		0.5021034851074219	-2.546320556640625	0		-0.8547621459960938	0.23214735412597656	0		-0.5527782592773437	-2.328622314453125	0		1.7255008544921875	-1.1153404541015626	0		3.22717431640625	-0.27356036376953125	0		4.52337939453125	-0.13480484008789062	0		5.98975341796875	0.5524827880859375	0		-0.22318789672851563	5.91939111328125	0		
-0.02363549613952637	0.0034044620990753174	0		0.5006517333984375	-2.548634521484375	0		-0.7882953491210938	0.23474676513671874	0		-0.5202908935546875	-2.334501220703125	0		1.7427412109375	-1.1328624267578125	0		3.2503203125	-0.29408267211914063	0		4.5455615234375	-0.15223670959472657	0		5.9940302734375	0.5444022216796875	0		-0.23826760864257812	5.9082275390625	0		
